<?xml version="1.0" encoding="utf-8"?>
<!-- Generator: Adobe Illustrator 22.1.0, SVG Export Plug-In . SVG Version: 6.00 Build 0)  -->
<svg version="1.1" id="Layer_1" xmlns="http://www.w3.org/2000/svg" xmlns:xlink="http://www.w3.org/1999/xlink" x="0px" y="0px"
	 viewBox="0 0 40 40" style="enable-background:new 0 0 40 40;" xml:space="preserve">
<path d="M20,40C9.1,40,0.2,35.4,0.2,29.8h0.7c0,5.2,8.6,9.5,19.1,9.5s19.1-4.2,19.1-9.5h0.7C39.8,35.4,30.9,40,20,40z"/>
<path d="M0.9,29.8H0.2c0-0.8,0.2-1.6,0.5-2.3l0.6,0.3C1.1,28.5,0.9,29.2,0.9,29.8z M39.1,29.7c0-0.7-0.2-1.4-0.5-2l0.6-0.3
	c0.4,0.7,0.5,1.5,0.6,2.3H39.1z M2.5,26.1L2,25.6c0.5-0.5,1.1-1.1,1.7-1.5l0.4,0.6C3.5,25.1,3,25.6,2.5,26.1z M37.4,26
	c-0.5-0.5-1-1-1.6-1.4l0.4-0.6c0.7,0.5,1.2,1,1.7,1.5L37.4,26z M6,23.4l-0.3-0.6c0.6-0.3,1.3-0.7,2.1-1L8,22.5
	C7.3,22.8,6.6,23.1,6,23.4z M33.9,23.4c-0.6-0.3-1.3-0.6-2-0.9l0.3-0.7c0.7,0.3,1.4,0.6,2.1,0.9L33.9,23.4z M10.1,21.8l-0.2-0.7
	c0.7-0.2,1.4-0.4,2.2-0.6l0.2,0.7C11.5,21.4,10.8,21.6,10.1,21.8z M29.8,21.7c-0.7-0.2-1.4-0.4-2.1-0.6l0.2-0.7
	c0.7,0.2,1.5,0.4,2.2,0.6L29.8,21.7z M14.4,20.8l-0.1-0.7c0.7-0.1,1.5-0.2,2.2-0.3l0.1,0.7C15.9,20.6,15.1,20.7,14.4,20.8z
	 M25.5,20.8c-0.7-0.1-1.5-0.2-2.2-0.3l0.1-0.7c0.8,0.1,1.5,0.2,2.2,0.3L25.5,20.8z M18.8,20.4v-0.7c0.4,0,0.8,0,1.2,0
	c0.4,0,0.7,0,1.1,0v0.7c-0.4,0-0.7,0-1.1,0S19.2,20.4,18.8,20.4z"/>
<path d="M39,28.3L20,1.2L1,28.3l-0.6-0.4L20,0l19.5,27.9L39,28.3z"/>
<path d="M20.4,29.8h-0.7v-2.2h0.7V29.8z M20.4,25.4h-0.7v-2.2h0.7V25.4z M20.4,20.9h-0.7v-2.2h0.7V20.9z M20.4,16.4h-0.7v-2.2h0.7
	V16.4z M20.4,11.9h-0.7V9.7h0.7V11.9z M20.4,7.4h-0.7V5.2h0.7V7.4z M20.4,3h-0.7V0.8h0.7V3z"/>
<path d="M39.6,30.2h-2.2v-0.7h2.2V30.2z M35.1,30.2h-2.2v-0.7h2.2V30.2z M30.6,30.2h-2.2v-0.7h2.2V30.2z M26.2,30.2H24v-0.7h2.2
	V30.2z M21.7,30.2H20v-0.7h1.7V30.2z"/>
<path d="M20.2,28.7c0.6,0,1,0.4,1,1s-0.4,1-1,1s-1-0.4-1-1S19.6,28.7,20.2,28.7z"/>
<g>
	<path d="M27.5,25c0.3-0.1,0.6-0.3,0.7-0.3c0.1-0.1,0.2-0.1,0.2-0.1l0.1,0.1c0,0.2,0,0.4,0,0.5c0,0,0,0,0.1,0
		c0.4-0.4,0.8-0.6,1.1-0.6c0.4,0,0.5,0.2,0.5,0.3c0,0,0,0.1-0.1,0.1c-0.1,0.2-0.3,0.4-0.4,0.5h-0.1c-0.1-0.1-0.3-0.2-0.5-0.2
		s-0.3,0-0.4,0.1s-0.1,0.2-0.1,0.2c0,0.2,0,2,0.1,2.2c0,0.3,0.1,0.5,0.3,0.5l0.5,0.1c0.2,0,0.2,0.1,0.2,0.2c0,0-0.1,0.1-0.2,0.1
		c-0.2,0-0.6,0-1.2,0c-0.3,0-0.4,0-0.7,0c-0.1,0-0.2,0-0.2-0.1s0.1-0.1,0.2-0.1c0.4-0.1,0.4-0.2,0.4-0.8v-1.9c0-0.1,0-0.2-0.1-0.3
		c-0.2-0.2-0.3-0.2-0.3-0.3C27.4,25.1,27.4,25,27.5,25z"/>
</g>
<g>
	<path d="M25.1,13.3c0.2,0.3,0.3,0.6,0.3,1.1v1.8c0,0.2,0.1,0.3,0.4,0.4c0.2,0,0.3,0.1,0.3,0.2s-0.1,0.1-0.3,0.1c-0.3,0-0.5,0-0.8,0
		c-0.2,0-0.4,0-0.7,0c-0.2,0-0.2,0-0.2-0.1s0.1-0.1,0.2-0.1c0.2-0.1,0.3-0.1,0.3-0.5c0-0.2,0-1.3,0-1.4c0-0.5,0-0.9-0.2-1
		c-0.2-0.2-0.4-0.3-0.8-0.3s-0.8,0.2-0.8,0.2s-0.2,0.2-0.2,0.5c0,0.4,0,1.7,0,2.1c0,0.3,0.2,0.4,0.4,0.4c0.1,0,0.2,0.1,0.2,0.2
		S23.1,17,23,17s-0.6,0-0.8,0c-0.2,0-0.6,0-0.8,0c-0.1,0-0.2,0-0.2-0.1c0,0,0.1-0.1,0.3-0.2c0.3-0.1,0.4-0.2,0.4-0.6
		s0.1-1.8,0.1-2.8c0-0.4,0-2.1,0-2.4c0-0.3,0-0.3-0.3-0.5c0,0-0.1-0.1-0.1-0.2c0,0,0,0,0-0.1c0.3-0.1,0.8-0.2,1-0.3
		c0,0,0.1-0.1,0.2-0.1l0.1,0.1c-0.1,0.7-0.1,3.2-0.1,3.5c0,0.1,0.1,0.1,0.1,0.1c0.4-0.4,0.8-0.6,1.3-0.6
		C24.5,12.8,24.8,13,25.1,13.3z"/>
</g>
</svg>
