<?xml version="1.0" encoding="utf-8"?>
<!-- Generator: Adobe Illustrator 22.1.0, SVG Export Plug-In . SVG Version: 6.00 Build 0)  -->
<svg version="1.1" id="Layer_1" xmlns="http://www.w3.org/2000/svg" xmlns:xlink="http://www.w3.org/1999/xlink" x="0px" y="0px"
	 viewBox="0 0 40 50" style="enable-background:new 0 0 40 50;" xml:space="preserve">
<style type="text/css">
	.st0{fill-rule:evenodd;clip-rule:evenodd;}
</style>
<path d="M20,49.9c-11,0-20-4.6-20-10.2h0.7c0,5.3,8.7,9.5,19.3,9.5s19.3-4.3,19.3-9.5H40C40,45.3,31,49.9,20,49.9z"/>
<path d="M2.3,35.9l-0.5-0.5c0.5-0.5,1-1.1,1.7-1.5l0.4,0.6C3.3,34.9,2.7,35.4,2.3,35.9z M37.2,35.4c-0.5-0.5-1.1-0.9-1.7-1.3
	l0.4-0.6c0.7,0.5,1.3,0.9,1.8,1.4L37.2,35.4z M5.7,33.3l-0.3-0.6c0.6-0.3,1.3-0.7,2.1-1l0.3,0.6C7,32.7,6.4,33,5.7,33.3z M33.6,33
	c-0.6-0.3-1.3-0.6-2-0.9l0.2-0.7c0.7,0.3,1.4,0.6,2.1,0.9L33.6,33z M9.8,31.6L9.6,31c0.7-0.2,1.4-0.4,2.2-0.6l0.2,0.7
	C11.2,31.2,10.5,31.4,9.8,31.6z M29.5,31.4c-0.7-0.2-1.4-0.4-2.2-0.5l0.1-0.7c0.7,0.2,1.5,0.3,2.2,0.5L29.5,31.4z M14.1,30.6
	L14,29.9c0.7-0.1,1.5-0.2,2.2-0.3l0.1,0.7C15.6,30.4,14.8,30.5,14.1,30.6z M25.1,30.5c-0.7-0.1-1.5-0.2-2.2-0.2l0.1-0.7
	c0.8,0.1,1.5,0.1,2.2,0.2L25.1,30.5z M18.5,30.2l0-0.7c0.7,0,1.5,0,2.3,0l0,0.7C20,30.2,19.2,30.2,18.5,30.2z"/>
<path d="M0.7,39.8L0,39.6L8,9.7l0.7,0.2L0.7,39.8z M40,39.6l-7.4-30L32,10.4l7.3,29.4L40,39.6z"/>
<path d="M20.3,16.7c-6.9,0-12.4-2.8-12.4-6.4h0.7c0,3.2,5.2,5.7,11.7,5.7s11.7-2.6,11.7-5.7h0.7C32.6,13.9,27.2,16.7,20.3,16.7z"/>
<path d="M32.6,10.3h-0.7c0-3.2-5.2-5.7-11.7-5.7S8.6,7.1,8.6,10.3H7.9c0-3.6,5.4-6.4,12.4-6.4C27.2,3.9,32.6,6.7,32.6,10.3z"/>
<g>
	<rect x="19.9" y="9.9" width="1.1" height="0.7"/>
	<path d="M29.5,10.6h-2.1V9.9h2.1V10.6z M25.3,10.6h-2.1V9.9h2.1V10.6z"/>
	<rect x="31.6" y="9.9" width="0.9" height="0.7"/>
</g>
<path d="M19.9,39.7h-0.7v-2.2h0.7V39.7z M19.9,35.2h-0.7V33h0.7V35.2z M19.9,30.8h-0.7v-2.2h0.7V30.8z M19.9,26.3h-0.7v-2.2h0.7
	V26.3z M19.9,21.9h-0.7v-2.2h0.7V21.9z M19.9,17.4h-0.7v-2.2h0.7V17.4z M19.9,13h-0.7v-2.2h0.7V13z"/>
<path d="M39.3,40.1h-2.2v-0.7h2.2V40.1z M34.9,40.1h-2.2v-0.7h2.2V40.1z M30.4,40.1h-2.2v-0.7h2.2V40.1z M25.9,40.1h-2.2v-0.7h2.2
	V40.1z M21.5,40.1h-1.9v-0.7h1.9V40.1z"/>
<path class="st0" d="M19.6,38.6c0.6,0,1,0.5,1,1c0,0.6-0.5,1-1,1c-0.6,0-1-0.5-1-1C18.5,39.1,19,38.6,19.6,38.6z"/>
<g>
	<path d="M28.8,35.5c-0.1,0-0.2,0.1-0.3,0.2c0,0-0.1,0.1,0,0.2c0.1,0.2,0.9,1.6,1.5,2.3c0.3,0.3,0.5,0.5,1,0.6
		c0.1,0,0.2,0.1,0.2,0.1c0,0.1-0.1,0.1-0.1,0.1c-0.1,0-0.3,0.1-0.5,0.1c-0.5,0-1-0.3-1.3-0.7c-0.3-0.5-0.9-1.2-1.3-1.9
		c-0.1-0.2-0.3-0.5-0.4-0.5c0,0-0.4-0.1-0.7-0.1c-0.1,0-0.1,0.1-0.1,0.1c0,0.2,0,1.4,0,2c0,0.4,0.1,0.6,0.6,0.7
		c0.2,0.1,0.2,0.1,0.2,0.2c0,0.1-0.2,0.1-0.2,0.1c-0.4,0-0.6-0.1-1.3-0.1c-0.2,0-0.7,0-0.8,0c-0.1,0-0.3,0-0.3-0.1
		c0-0.1,0.1-0.1,0.2-0.2c0.4-0.1,0.6-0.2,0.6-0.6c0-0.3,0.1-1.4,0.1-2c0-1.5,0-2.4-0.1-2.8c0-0.4-0.1-0.4-0.6-0.5
		c-0.1,0-0.2-0.1-0.2-0.2c0-0.1,0-0.1,0.3-0.1h0.6c0.4,0,1.1,0,1.6,0c0.7,0,1.2,0.1,1.6,0.4c0.3,0.3,0.6,0.8,0.6,1.2
		C29.6,34.6,29.3,35.2,28.8,35.5z M28.3,33.1c-0.2-0.2-0.7-0.4-1-0.4c0,0-0.4,0-0.5,0.1c0,0-0.1,0.2-0.1,0.2c0,0.3-0.1,2.3,0,2.4
		c0,0.1,0.1,0.2,0.2,0.2c0.6,0,1.1-0.2,1.2-0.3c0.3-0.2,0.7-0.6,0.7-1.2C28.7,33.8,28.5,33.4,28.3,33.1z"/>
</g>
<g>
	<path d="M24.6,23.3c0.2,0.3,0.3,0.6,0.3,1.1l0,1.8c0,0.2,0.1,0.3,0.4,0.4c0.2,0,0.3,0.1,0.3,0.2c0,0.1-0.1,0.1-0.3,0.1
		c-0.3,0-0.5,0-0.8,0c-0.2,0-0.4,0-0.7,0c-0.2,0-0.2,0-0.2-0.1c0-0.1,0.1-0.1,0.2-0.1c0.2-0.1,0.3-0.1,0.3-0.5c0-0.2,0-1.3,0-1.4
		c0-0.5,0-0.9-0.2-1c-0.2-0.2-0.4-0.3-0.8-0.3c-0.4,0-0.8,0.2-0.8,0.2c0,0-0.2,0.2-0.2,0.5c0,0.4,0,1.7,0,2.1c0,0.3,0.2,0.4,0.4,0.5
		c0.1,0,0.2,0.1,0.2,0.2c0,0.1-0.1,0.1-0.2,0.1c-0.1,0-0.6,0-0.8,0c-0.2,0-0.6,0-0.8,0c-0.1,0-0.2,0-0.2-0.1c0-0.1,0.1-0.1,0.3-0.2
		c0.3-0.1,0.4-0.2,0.4-0.6c0-0.4,0.1-1.8,0.1-2.8c0-0.4,0-2.1,0-2.4c0-0.3,0-0.3-0.3-0.5c0,0-0.1-0.1-0.1-0.2c0,0,0,0,0,0
		c0.3-0.1,0.8-0.2,1-0.3c0,0,0.1-0.1,0.2-0.1c0,0,0.1,0.1,0.1,0.1c-0.1,0.7-0.1,3.2-0.1,3.5c0,0.1,0.1,0.1,0.1,0.1
		c0.4-0.4,0.8-0.6,1.3-0.6C24.1,22.8,24.4,23,24.6,23.3z"/>
</g>
<g>
	<path d="M21.7,5.8c0.3-0.1,0.6-0.3,0.7-0.3c0.1-0.1,0.2-0.1,0.2-0.1c0,0,0.1,0.1,0.1,0.1c0,0.2,0,0.4,0,0.5c0,0,0,0,0.1,0
		c0.4-0.4,0.8-0.6,1.1-0.6c0.4,0,0.5,0.2,0.5,0.3c0,0,0,0.1-0.1,0.1C24.3,6.1,24,6.3,24,6.4c0,0-0.1,0-0.1,0
		c-0.1-0.1-0.3-0.2-0.5-0.2c-0.2,0-0.3,0-0.4,0.1c-0.1,0.1-0.1,0.2-0.1,0.2c0,0.2,0,2,0.1,2.2c0,0.3,0.1,0.5,0.3,0.5l0.5,0.1
		c0.2,0,0.2,0.1,0.2,0.2c0,0-0.1,0.1-0.2,0.1c-0.2,0-0.6,0-1.2,0c-0.3,0-0.4,0-0.7,0c-0.1,0-0.2,0-0.2-0.1c0-0.1,0.1-0.1,0.2-0.1
		C22,9.1,22,9,22.1,8.4V6.5c0-0.1,0-0.2-0.1-0.3C21.7,6,21.6,6,21.6,6C21.6,5.9,21.6,5.8,21.7,5.8z"/>
</g>
</svg>
