<?xml version="1.0" encoding="utf-8"?>
<!-- Generator: Adobe Illustrator 22.1.0, SVG Export Plug-In . SVG Version: 6.00 Build 0)  -->
<svg version="1.1" id="Layer_1" xmlns="http://www.w3.org/2000/svg" xmlns:xlink="http://www.w3.org/1999/xlink" x="0px" y="0px"
	 viewBox="0 0 40 40" style="enable-background:new 0 0 40 40;" xml:space="preserve">
<path d="M29.2,11.1v28.1H1.1V11.1H29.2 M29.9,10.4H0.4v29.5h29.5V10.4L29.9,10.4z"/>
<path d="M39.6,30.2h-1v-0.7h1V30.2z M36.4,30.2h-2.2v-0.7h2.2V30.2z M31.9,30.2h-2.2v-0.7h2.2V30.2z M27.5,30.2h-2.2v-0.7h2.2V30.2z
	 M23,30.2h-2.2v-0.7H23V30.2z M18.6,30.2h-2.2v-0.7h2.2V30.2z M14.1,30.2h-2.2v-0.7h2.2V30.2z M10.5,29.4H9.8v-2.2h0.7V29.4z
	 M10.5,24.9H9.8v-2.2h0.7V24.9z M10.5,20.4H9.8v-2.2h0.7V20.4z M10.5,16H9.8v-2.2h0.7V16z M10.5,11.5H9.8V9.3h0.7V11.5z M10.5,7.1
	H9.8V4.8h0.7V7.1z M10.5,2.6H9.8V0.4h0.7V2.6z"/>
<path d="M39.9,29.8h-0.7V0.7H10.1V0h29.8V29.8z M10.5,0.8L10,0.3l-9.7,10l0.5,0.5L10.5,0.8z M40,30.3l-0.5-0.5l-10,9.7l0.5,0.5
	L40,30.3z M40,0.8l-0.5-0.5l-10,10l0.5,0.5L40,0.8z"/>
<path d="M0.5,40L0,39.5l1.5-1.6L2,38.4L0.5,40z M3.6,36.7l-0.5-0.5l1.5-1.6l0.5,0.5L3.6,36.7z M6.7,33.5l-0.5-0.5l1.5-1.6l0.5,0.5
	L6.7,33.5z M9.8,30.3l-0.5-0.5l0.4-0.4l0.5,0.5L9.8,30.3z"/>
<g>
	<path d="M18.6,34.1c0.1,0.2,0.2,0.4,0.2,0.8c0,0.4,0,1.6,0,1.8c0,0.5,0.3,0.5,0.4,0.5c0,0,0.3-0.1,0.4-0.2c0,0,0,0,0.1,0
		c0,0,0,0.1,0,0.1c0,0.2-0.5,0.6-0.9,0.6c-0.2,0-0.5-0.1-0.6-0.5c0,0,0,0-0.1,0c-0.4,0.3-0.8,0.4-0.9,0.5c-0.1,0-0.3,0.1-0.4,0.1
		c-0.3,0-0.7-0.4-0.7-0.9c0-0.2,0.1-0.4,0.2-0.5c0.1-0.1,0.2-0.2,0.4-0.2c0.1-0.1,0.9-0.3,1.2-0.3c0.2-0.1,0.3-0.1,0.3-0.2
		c0-0.1,0-0.7,0-0.8c0-0.2-0.3-0.7-0.8-0.7c-0.2,0-0.3,0.1-0.4,0.1c-0.1,0-0.1,0.2-0.1,0.4c0,0,0,0.1-0.1,0.1
		c-0.1,0.1-0.6,0.3-0.6,0.3c-0.1,0-0.1-0.1-0.1-0.1c0-0.3,0.3-0.6,0.8-0.9c0.3-0.2,0.7-0.4,0.9-0.4C18.2,33.6,18.5,33.9,18.6,34.1z
		 M18,37.1c0.1,0,0.1-0.2,0.1-0.2c0-0.2,0-0.6,0-0.8c0,0,0-0.1-0.1-0.1c-0.3,0-0.8,0.2-1,0.3c-0.1,0.1-0.2,0.1-0.2,0.4
		c0,0.4,0.4,0.6,0.6,0.6C17.6,37.2,17.8,37.2,18,37.1z"/>
</g>
</svg>
