<?xml version="1.0" encoding="utf-8"?>
<!-- Generator: Adobe Illustrator 22.1.0, SVG Export Plug-In . SVG Version: 6.00 Build 0)  -->
<svg version="1.1" id="Layer_1" xmlns="http://www.w3.org/2000/svg" xmlns:xlink="http://www.w3.org/1999/xlink" x="0px" y="0px"
	 viewBox="0 0 40 50" style="enable-background:new 0 0 40 50;" xml:space="preserve">
<path d="M29.2,11.2v38.1H0.7V11.2H29.2 M29.9,10.5H0V50h29.9V10.5L29.9,10.5z"/>
<path d="M39.6,40.2h-2.1v-0.7h2.1V40.2z M35.3,40.2H33v-0.7h2.2V40.2z M30.8,40.2h-2.2v-0.7h2.2V40.2z M26.3,40.2h-2.2v-0.7h2.2
	V40.2z M21.9,40.2h-2.2v-0.7h2.2V40.2z M17.4,40.2h-2.2v-0.7h2.2V40.2z M13,40.2h-2.2v-0.7H13V40.2z M10.5,38.3H9.8V36h0.7V38.3z
	 M10.5,33.8H9.8v-2.2h0.7V33.8z M10.5,29.3H9.8v-2.2h0.7V29.3z M10.5,24.9H9.8v-2.2h0.7V24.9z M10.5,20.4H9.8v-2.2h0.7V20.4z
	 M10.5,16H9.8v-2.2h0.7V16z M10.5,11.5H9.8V9.3h0.7V11.5z M10.5,7H9.8V4.8h0.7V7z M10.5,2.6H9.8V0.3h0.7V2.6z"/>
<path d="M40,40.3l-0.8-0.4V0.7H9.9V0H40L40,40.3z M10.2,0.7H9.9V0L0.1,10.4l0.5,0.5L10.2,0.7z M40,40.3l-0.6-0.4l-9.9,9.6l0.5,0.5
	L40,40.3z M39.2,1.5V0.7h-0.1l-9.6,9.6l0.5,0.5L39.2,1.5z"/>
<path d="M0.5,50L0,49.5l1.5-1.6L2,48.4L0.5,50z M3.6,46.8l-0.5-0.5l1.5-1.6l0.5,0.5L3.6,46.8z M6.7,43.6l-0.5-0.5l1.5-1.6L8.2,42
	L6.7,43.6z M9.8,40.4l-0.5-0.5l0.4-0.4l0.5,0.5L9.8,40.4z"/>
<g>
	<path d="M17.1,41.8c0.5-0.2,0.8-0.2,1-0.4c0,0,0.1,0.1,0.1,0.1c0,0.2-0.1,1.4-0.1,2.7c0,1.5,0,3.4,0,3.6c0,0.2,0.1,0.3,0.5,0.4
		c0.1,0,0.2,0.1,0.2,0.1c0,0.1-0.1,0.1-0.3,0.1c-0.2,0-0.7,0-0.8,0c-0.2,0-0.7,0-0.9,0c-0.2,0-0.3,0-0.3-0.1c0-0.1,0.1-0.1,0.2-0.1
		c0.5-0.1,0.5-0.3,0.5-0.8c0-0.4,0.1-1.5,0.1-3c0-0.7,0-1.8,0-2.1c0-0.1,0-0.1-0.2-0.3C17,42,17,42,17,42S17,41.9,17.1,41.8z"/>
</g>
<g>
	<path d="M5.5,27c0.2,0.3,0.3,0.6,0.3,1.1l0,1.8c0,0.2,0.1,0.3,0.4,0.4c0.2,0,0.3,0.1,0.3,0.2c0,0.1-0.1,0.1-0.3,0.1
		c-0.3,0-0.5,0-0.8,0c-0.2,0-0.4,0-0.7,0c-0.2,0-0.2,0-0.2-0.1c0-0.1,0.1-0.1,0.2-0.1c0.2-0.1,0.3-0.1,0.3-0.5c0-0.2,0-1.3,0-1.4
		c0-0.5,0-0.9-0.2-1c-0.2-0.2-0.4-0.3-0.8-0.3c-0.4,0-0.8,0.2-0.8,0.2c0,0-0.2,0.2-0.2,0.5c0,0.4,0,1.7,0,2.1c0,0.3,0.2,0.4,0.4,0.5
		c0.1,0,0.2,0.1,0.2,0.2c0,0.1-0.1,0.1-0.2,0.1c-0.1,0-0.6,0-0.8,0c-0.2,0-0.6,0-0.8,0c-0.1,0-0.2,0-0.2-0.1c0-0.1,0.1-0.1,0.3-0.2
		c0.3-0.1,0.4-0.2,0.4-0.6c0-0.4,0.1-1.8,0.1-2.8c0-0.4,0-2.1,0-2.4c0-0.3,0-0.3-0.3-0.5c0,0-0.1-0.1-0.1-0.2c0,0,0,0,0,0
		c0.3-0.1,0.8-0.2,1-0.3c0,0,0.1-0.1,0.2-0.1c0,0,0.1,0.1,0.1,0.1c-0.1,0.7-0.1,3.2-0.1,3.5c0,0.1,0.1,0.1,0.1,0.1
		c0.4-0.4,0.8-0.6,1.3-0.6C5,26.5,5.3,26.7,5.5,27z"/>
</g>
<g>
	<path d="M33.6,9.5c0.2,0,0.3,0.1,0.3,0.1c0,0.1-0.1,0.1-0.2,0.2c-0.2,0-0.3,0.2-0.2,0.4c0.1,0.4,0.8,2.1,0.9,2.2
		c0,0.1,0.1,0.1,0.1,0c0.1-0.2,0.5-1.1,0.7-1.5c0.1-0.1,0.1-0.2,0.1-0.2c0-0.1-0.1-0.3-0.2-0.5c-0.1-0.2-0.2-0.4-0.4-0.4
		c-0.1,0-0.2-0.1-0.2-0.2c0-0.1,0.1-0.1,0.2-0.1c0.1,0,0.4,0,0.7,0c0.2,0,0.5,0,0.7,0c0.1,0,0.2,0,0.2,0.1c0,0.1-0.1,0.1-0.2,0.2
		c-0.3,0.1-0.3,0.2-0.3,0.2c0,0.1,0,0.2,0.1,0.4c0.1,0.1,0.6,1.5,0.8,2c0,0.1,0.1,0,0.1,0c0.2-0.4,0.5-1.2,0.7-1.7
		c0.1-0.3,0.2-0.5,0.2-0.6c0-0.1,0-0.2-0.4-0.3c-0.1,0-0.2-0.1-0.2-0.2c0-0.1,0.1-0.1,0.2-0.1c0.1,0,0.5,0,0.6,0
		c0.3,0,0.6-0.1,0.7-0.1c0.1,0,0.2,0,0.2,0.1c0,0.1-0.1,0.1-0.2,0.1c-0.3,0.1-0.4,0.2-0.5,0.5c-0.3,0.6-0.7,1.4-1,2.1
		c-0.2,0.4-0.3,0.8-0.4,1.1c0,0.1-0.1,0.1-0.1,0.1s-0.1-0.1-0.2-0.1c0-0.1-0.2-0.5-0.3-0.7l-0.6-1.5c0,0-0.1,0-0.1,0
		c-0.2,0.5-0.6,1.3-0.9,2c0,0.1-0.2,0.4-0.2,0.4s-0.1,0-0.2-0.2l-0.3-0.9c-0.1-0.2-0.7-1.6-0.9-2.1c-0.2-0.4-0.3-0.6-0.6-0.7
		c-0.1,0-0.2-0.1-0.2-0.2c0-0.1,0.1-0.1,0.3-0.1c0.2,0,0.5,0,0.7,0C33.1,9.5,33.4,9.5,33.6,9.5z"/>
</g>
</svg>
